<svg width="20" height="20" viewBox="0 0 20 20" fill="none" xmlns="http://www.w3.org/2000/svg">
<path fill-rule="evenodd" clip-rule="evenodd" d="M2.96967 0.46967C3.26256 0.176777 3.73744 0.176777 4.03033 0.46967L10 6.43934L15.9697 0.46967C16.2626 0.176777 16.7374 0.176777 17.0303 0.46967L19.5303 2.96967C19.8232 3.26256 19.8232 3.73744 19.5303 4.03033L13.5607 10L19.5303 15.9697C19.8232 16.2626 19.8232 16.7374 19.5303 17.0303L17.0303 19.5303C16.7374 19.8232 16.2626 19.8232 15.9697 19.5303L10 13.5607L4.03033 19.5303C3.73744 19.8232 3.26256 19.8232 2.96967 19.5303L0.46967 17.0303C0.176777 16.7374 0.176777 16.2626 0.46967 15.9697L6.43934 10L0.46967 4.03033C0.176777 3.73744 0.176777 3.26256 0.46967 2.96967L2.96967 0.46967ZM2.06066 3.5L8.03033 9.46967C8.32322 9.76256 8.32322 10.2374 8.03033 10.5303L2.06066 16.5L3.5 17.9393L9.46967 11.9697C9.76256 11.6768 10.2374 11.6768 10.5303 11.9697L16.5 17.9393L17.9393 16.5L11.9697 10.5303C11.6768 10.2374 11.6768 9.76256 11.9697 9.46967L17.9393 3.5L16.5 2.06066L10.5303 8.03033C10.2374 8.32322 9.76256 8.32322 9.46967 8.03033L3.5 2.06066L2.06066 3.5Z" fill="white"/>
</svg>
