<svg width="19" height="19" viewBox="0 0 19 19" fill="none" xmlns="http://www.w3.org/2000/svg">
<path d="M14 18.9998C12.3463 18.9983 10.7183 18.5896 9.26 17.8098L8.81 17.5598C5.70075 15.8881 3.15169 13.339 1.48 10.2298L1.23 9.7798C0.429821 8.3132 0.00713062 6.67048 6.21756e-07 4.99978V4.32978C-0.000419378 3.79674 0.211961 3.28558 0.590001 2.90978L2.28 1.21978C2.44413 1.05438 2.67581 0.974659 2.90696 1.00404C3.13811 1.03342 3.34248 1.16858 3.46 1.36978L5.71 5.22978C5.93753 5.62267 5.87183 6.11954 5.55 6.43978L3.66 8.3298C3.50304 8.485 3.46647 8.7248 3.57 8.9198L3.92 9.5798C5.17704 11.9082 7.0893 13.817 9.42 15.0698L10.08 15.4298C10.275 15.5333 10.5148 15.4967 10.67 15.3398L12.56 13.4498C12.8802 13.128 13.3771 13.0623 13.77 13.2898L17.63 15.5398C17.8312 15.6573 17.9664 15.8617 17.9957 16.0928C18.0251 16.324 17.9454 16.5557 17.78 16.7198L16.09 18.4098C15.7142 18.7878 15.203 19.0002 14.67 18.9998H14Z" fill="white"/>
</svg>
