<?xml version="1.0" encoding="utf-8"?><svg xmlns="http://www.w3.org/2000/svg" xmlns:xlink="http://www.w3.org/1999/xlink"><symbol viewBox="0 0 1440 1099" id="footerBG" xmlns="http://www.w3.org/2000/svg"><path opacity=".2" d="M0 624l1440 220.998H0V624z"/><path opacity=".1" d="M1440 0v845H0L1440 0z"/><path d="M0 845h1440v254H0V845z"/></symbol><symbol viewBox="0 0 414 565" id="mmbg" xmlns="http://www.w3.org/2000/svg"><path d="M0 0h414v565H0z"/><path opacity=".2" d="M0 325.274L414 565H0V325.274z"/><path opacity=".1" d="M414 119.393V565H0l414-445.607z"/></symbol><symbol viewBox="0 0 20 20" id="mobileClose" xmlns="http://www.w3.org/2000/svg"><path fill-rule="evenodd" clip-rule="evenodd" d="M2.97.47a.75.75 0 011.06 0L10 6.44 15.97.47a.75.75 0 011.06 0l2.5 2.5a.75.75 0 010 1.06L13.56 10l5.97 5.97a.75.75 0 010 1.06l-2.5 2.5a.75.75 0 01-1.06 0L10 13.56l-5.97 5.97a.75.75 0 01-1.06 0l-2.5-2.5a.75.75 0 010-1.06L6.44 10 .47 4.03a.75.75 0 010-1.06l2.5-2.5zM2.06 3.5l5.97 5.97a.75.75 0 010 1.06L2.06 16.5l1.44 1.44 5.97-5.97a.75.75 0 011.06 0l5.97 5.97 1.44-1.44-5.97-5.97a.75.75 0 010-1.06l5.97-5.97-1.44-1.44-5.97 5.97a.75.75 0 01-1.06 0L3.5 2.06 2.06 3.5z"/></symbol><symbol viewBox="0 0 24 24" id="mobileOpen" xmlns="http://www.w3.org/2000/svg"><path fill-rule="evenodd" clip-rule="evenodd" d="M3.25 3.5A.75.75 0 014 2.75h16a.75.75 0 01.75.75v3a.75.75 0 01-.75.75H4a.75.75 0 01-.75-.75v-3zm1.5.75v1.5h14.5v-1.5H4.75zm-1.5 6.25A.75.75 0 014 9.75h16a.75.75 0 01.75.75v3a.75.75 0 01-.75.75H4a.75.75 0 01-.75-.75v-3zm1.5.75v1.5h14.5v-1.5H4.75zm-1.5 6.25a.75.75 0 01.75-.75h16a.75.75 0 01.75.75v3a.75.75 0 01-.75.75H4a.75.75 0 01-.75-.75v-3zm1.5.75v1.5h14.5v-1.5H4.75z"/></symbol><symbol viewBox="0 0 20 16" id="msg" xmlns="http://www.w3.org/2000/svg"><path fill-rule="evenodd" clip-rule="evenodd" d="M2 0h16a2 2 0 012 2v12a2 2 0 01-2 2H2a2 2 0 01-2-2V2a2 2 0 012-2zm9.65 11.45L18 7V4.9l-7.35 5.15a1.14 1.14 0 01-1.3 0L2 4.9V7l6.35 4.45a2.88 2.88 0 003.3 0z"/></symbol><symbol viewBox="0 0 19 19" id="phone" xmlns="http://www.w3.org/2000/svg"><path d="M14 19a10.072 10.072 0 01-4.74-1.19l-.45-.25a18 18 0 01-7.33-7.33l-.25-.45A10.07 10.07 0 010 5v-.67a2 2 0 01.59-1.42l1.69-1.69a.75.75 0 011.18.15l2.25 3.86a1 1 0 01-.16 1.21L3.66 8.33a.5.5 0 00-.09.59l.35.66a13.53 13.53 0 005.5 5.49l.66.36a.5.5 0 00.59-.09l1.89-1.89a1 1 0 011.21-.16l3.86 2.25a.75.75 0 01.15 1.18l-1.69 1.69a2 2 0 01-1.42.59H14z"/></symbol></svg>